<svg width="116" height="92" viewBox="0 0 116 92" fill="none" xmlns="http://www.w3.org/2000/svg">
<path d="M16.9167 24.2105C16.9167 17.7895 19.4628 11.6315 23.9949 7.0911C28.5271 2.55074 34.6739 0 41.0833 0C47.4927 0 53.6396 2.55074 58.1717 7.0911C62.7039 11.6315 65.25 17.7895 65.25 24.2105C65.25 30.6316 62.7039 36.7896 58.1717 41.33C53.6396 45.8703 47.4927 48.4211 41.0833 48.4211C34.6739 48.4211 28.5271 45.8703 23.9949 41.33C19.4628 36.7896 16.9167 30.6316 16.9167 24.2105ZM24.1667 58.1053C17.7573 58.1053 11.6104 60.656 7.07825 65.1964C2.54612 69.7367 0 75.8948 0 82.3158L0 92H82.1667V82.3158C82.1667 75.8948 79.6205 69.7367 75.0884 65.1964C70.5563 60.656 64.4094 58.1053 58 58.1053H24.1667ZM116 92H91.8333V82.3158C91.8333 72.8301 87.9473 64.2547 81.6833 58.1053H91.8333C95.007 58.1053 98.1495 58.7315 101.082 59.9482C104.014 61.1649 106.678 62.9482 108.922 65.1964C111.166 67.4445 112.946 70.1135 114.16 73.0508C115.375 75.9882 116 79.1364 116 82.3158V92ZM74.9167 48.4211C71.9663 48.4224 69.0406 47.8825 66.2843 46.828C71.8553 40.6181 74.9309 32.5599 74.9167 24.2105C74.9296 15.8606 71.8523 7.80222 66.2795 1.59305C69.5906 0.326345 73.1392 -0.195247 76.6739 0.0652471C80.2086 0.325741 83.6429 1.36194 86.7333 3.10041C89.8236 4.83888 92.4945 7.23706 94.5565 10.125C96.6186 13.0129 98.0213 16.3198 98.6653 19.8114C99.3093 23.303 99.1788 26.8938 98.2831 30.3292C97.3874 33.7646 95.7483 36.9606 93.4821 39.6907C91.2159 42.4207 88.3781 44.618 85.1697 46.1267C81.9613 47.6355 78.4609 48.4187 74.9167 48.4211Z" fill="#167FCD"/>
</svg>
